PathFileType	4	(X/Y/Z)	C:/Users/beibeiliu/ov580/test_trc/User3\sequence.20_training_dense_left.trc
DataRate	CameraRate	NumFrames	NumMarkers	Units	OrigDataRate	OrigDataStartFrame	OrigNumFrames
120	120	15	19	mm	120	30	89
Frame#	Time	ThumbCMC			ThumbMCP			ThumbIP			ThumbTip			IndexMCP			IndexPIP			IndexTip			MiddleMCP			MiddlePIP			MiddleTip			RingMCP			RingPIP			RingTip			PinkyMCP			PinkyPIP			PinkyTip			BackHand1			BackHand2			BackHand3	
		X0	Y0	Z0	X1	Y1	Z1	X2	Y2	Z2	X3	Y3	Z3	X4	Y4	Z4	X5	Y5	Z5	X6	Y6	Z6	X7	Y7	Z7	X8	Y8	Z8	X9	Y9	Z9	X10	Y10	Z10	X11	Y11	Z11	X12	Y12	Z12	X13	Y13	Z13	X14	Y14	Z14	X15	Y15	Z15	X16	Y16	Z16	X17	Y17	Z17	X18	Y18	Z18	
29	0.241667	-114.191	9.97181	33.1844	-117.028	-5.71104	1.97925	-138.392	-14.8135	-21.6939	-168.689	-9.89409	-16.5062	-126.612	29.7733	-40.0023	-119.695	25.8184	-68.0146	-117.161	15.9876	-95.7842	-152.476	40.5554	-44.8479	-153.33	37.1453	-74.0148	-156.821	26.1724	-107.159	-170.428	38.7639	-34.4134	-176.652	39.5991	-60.1119	-186.854	35.0979	-84.3415	-188.318	33.152	-14.5427	-202.187	36.1502	-36.2939	-212.249	32.1656	-57.456	-160.276	46.5305	16.1514	-159.544	50.0386	43.3562	-129.383	44.8637	24.7079	
30	0.25	-106.564	7.83131	39.3671	-101.878	-18.1017	14.9028	-123.552	-29.377	-0.926348	-152.46	-25.6216	-2.57795	-105.381	-0.153397	-36.8694	-104.617	-11.0991	-56.9281	-101.964	-29.8072	-82.2282	-135.681	7.71397	-40.5301	-135.677	-5.74092	-69.2321	-137.238	-25.554	-92.6856	-154.708	9.53117	-36.0279	-161.066	-0.885676	-59.8169	-161.304	-17.1476	-81.3359	-175.584	9.64161	-17.0386	-184.915	2.89656	-34.9919	-193.397	-10.0445	-59.0669	-153.4	35.5809	8.05643	-152.598	47.2124	37.4032	-120.55	37.0606	21.6461	
31	0.258333	-96.9	15.9078	49.7728	-85.0206	-15.5952	31.6098	-101.671	-33.421	15.2468	-129.677	-41.7962	8.2876	-91.0023	-13.9358	-24.2062	-80.3098	-30.101	-39.0917	-73.4837	-51.7592	-55.7057	-114.133	-16.3008	-33.7551	-109.112	-36.781	-52.4058	-102.476	-62.2525	-71.0704	-138.565	-16.241	-24.4765	-135.212	-31.922	-42.841	-132.872	-55.4811	-61.293	-159.57	-14.3738	-7.89639	-163.099	-30.6527	-28.0241	-163.055	-46.2243	-41.5215	-144.184	22.9799	8.77094	-148.19	40.7524	34.1282	-110.841	33.2304	22.6798	
32	0.266667	-97.1903	33.4273	49.3706	-76.0768	7.96172	38.0341	-79.8126	-21.8232	24.1697	-104.784	-36.087	21.0813	-78.4619	-0.276082	-13.7908	-63.6007	-21.0507	-29.3224	-50.4975	-41.9906	-39.8117	-101.113	-16.5345	-22.1705	-87.3795	-36.9061	-38.8284	-68.8409	-62.6636	-48.9586	-117.509	-23.0516	-15.4432	-110.763	-42.149	-29.5136	-98.4245	-65.4671	-40.0548	-140.215	-30.2362	0.385573	-131.067	-46.0428	-14.0493	-124.135	-67.1552	-25.9808	-143.002	13.5723	9.9345	-154.178	33.468	32.5677	-122.381	37.1286	22.2274	
33	0.275	-108.026	53.7538	44.7239	-78.0468	33.5638	33.5852	-72.0743	0.243498	23.0673	-85.5517	-19.649	26.1769	-81.3437	14.762	-15.8721	-59.4989	2.28597	-30.0017	-36.0441	-11.2117	-36.4468	-90.6056	-6.05021	-21.6817	-71.7551	-21.3759	-34.032	-45.3473	-37.6357	-40.2324	-103.01	-19.5894	-11.5114	-89.3705	-35.4477	-21.9001	-66.9032	-54.5036	-29.7524	-120.045	-33.7578	5.53441	-105.893	-46.0098	-4.02862	-95.4053	-64.3663	-12.7957	-140.903	10.1828	12.0473	-159.346	21.6389	29.8893	-134.559	40.0879	16.6725	
34	0.283333	-125.755	59.854	39.1004	-89.3202	53.3535	28.5826	-74.8083	25.4049	21.9076	-80.8179	-1.65585	26.1939	-90.0358	30.7994	-20.8277	-61.7493	22.9335	-36.408	-40.9778	18.2761	-41.9949	-90.4957	4.33137	-24.581	-65.4054	-6.05393	-36.051	-32.0917	-12.5494	-40.9955	-99.5057	-13.5395	-9.50696	-76.8944	-21.9179	-24.0226	-50.235	-33.8028	-28.4677	-109.442	-26.1885	13.9212	-89.9605	-38.9196	-0.564934	-70.8623	-49.525	-8.48321	-141.624	5.79022	14.0467	-164.635	12.3078	35.3183	-146.212	35.2369	15.376	
35	0.291667	-139.669	60.5378	38.0003	-104.176	59.8535	21.7164	-83.9806	38.5337	18.2352	-81.0667	12.5109	26.4841	-98.9752	38.1104	-25.8298	-71.6045	41.9177	-42.3518	-50.0041	41.407	-47.7966	-91.2452	7.47121	-24.5112	-65.4854	9.68793	-38.4863	-33.5279	12.3194	-45.782	-94.4253	-8.33287	-9.21251	-70.4551	-12.0132	-24.7945	-44.8047	-12.8786	-29.7799	-97.0894	-23.1517	10.9434	-76.8917	-29.875	0.572479	-57.2065	-36.4792	-3.36259	-138.307	-2.87632	14.8983	-161.56	-0.94188	36.517	-152.718	28.5378	18.1553	
36	0.3	-149.187	52.4005	37.0121	-116.946	60.0639	19.935	-91.0384	45.5825	16.5775	-76.3054	20.588	25.0065	-102.512	35.3769	-24.728	-83.2926	42.8914	-40.8246	-58.7002	50.375	-50.8854	-92.2899	12.3552	-22.9022	-69.472	18.8144	-38.816	-36.977	24.6217	-46.2465	-89.0094	-3.69553	-6.26539	-67.6128	-2.58351	-21.114	-36.2721	4.51952	-31.8155	-85.176	-15.4575	12.4506	-65.8123	-17.1886	2.73247	-40.9602	-20.2353	-3.13516	-131.504	-10.6811	21.9887	-152.666	-12.1117	39.2095	-152.587	16.7478	19.9431	
37	0.308333	-150.765	37.6433	36.3451	-124.174	52.7397	16.8129	-96.2723	45.6506	14.5365	-76.6654	25.2531	24.0912	-104.392	30.346	-29.0354	-89.0541	41.7782	-46.7548	-70.6071	55.9091	-59.0131	-90.0462	8.41598	-20.8128	-68.108	17.9773	-39.7882	-40.6844	30.8374	-50.8366	-81.0797	-4.62888	-5.31676	-59.9923	3.4301	-24.7	-31.7996	10.4054	-33.9016	-77.2742	-14.8882	18.2695	-55.6605	-12.6256	6.72525	-38.1311	-8.80984	-5.01667	-125.077	-15.5191	24.4265	-139.731	-26.2821	45.7688	-149.787	5.24615	19.2488	
38	0.316667	-150.119	23.2575	36.9478	-129.054	44.6152	12.6677	-97.9201	37.035	4.49664	-81.9468	19.9832	17.8464	-117.961	16.0547	-31.1942	-106.788	29.7266	-57.1878	-88.0917	40.1939	-72.845	-99.6531	-0.0391384	-29.8379	-78.719	7.18989	-51.7135	-53.3013	21.9624	-70.4372	-84.5435	-10.026	-15.4278	-66.5617	-5.55991	-33.6224	-44.8958	3.73783	-48.2258	-73.3165	-18.1945	8.24768	-54.581	-17.7008	-2.59408	-33.4448	-14.5689	-18.4833	-116.975	-26.6897	25.4402	-133.945	-32.255	46.1101	-149.413	-9.23667	21.6962	
39	0.325	-143.4	20.6502	36.7711	-124.964	34.7763	11.0441	-96.1576	20.6013	-5.69696	-81.5007	-3.42015	7.30053	-127.468	6.4252	-40.6634	-122.558	13.8878	-62.2979	-106.697	24.419	-86.502	-111.039	-16.908	-39.6999	-98.078	-11.248	-65.7028	-79.5739	-3.85044	-86.853	-100.305	-25.1984	-25.0055	-84.7577	-26.0059	-48.4877	-64.1013	-22.3625	-69.7416	-83.8508	-36.762	-5.16858	-69.3622	-38.9036	-21.1675	-51.7667	-38.0294	-39.2487	-127.126	-33.498	19.6697	-134.781	-37.7086	46.4242	-152.815	-9.96407	25.2696	
40	0.333333	-134.391	30.3801	32.7307	-113.582	30.2609	4.5867	-96.2182	8.72852	-13.98	-90.4439	-20.0097	-4.60983	-134.625	9.37067	-44.1561	-127.78	17.178	-67.8169	-115.344	18.0964	-90.4181	-129.423	-15.4387	-44.7968	-120.665	-14.1944	-71.2359	-103.542	-8.31701	-99.7896	-120.354	-32.2009	-32.3023	-113.052	-34.0646	-56.9354	-96.3283	-34.2548	-83.2575	-111.59	-44.6258	-12.284	-101.05	-54.0338	-31.8292	-92.2323	-56.94	-54.1424	-140.968	-33.5838	12.8234	-150.749	-31.4688	42.5029	-157.245	-1.60588	23.1474	
41	0.341667	-119.897	30.1607	33.9643	-98.831	20.7258	9.08919	-94.6273	-6.9164	-16.8379	-109.174	-31.0959	-8.3525	-125.669	20.67	-41.6875	-117.073	23.1814	-65.3243	-105.819	18.6041	-88.9389	-136.081	-4.27709	-49.3426	-126.604	-4.70679	-75.0508	-112.013	-12.1375	-102.648	-140.172	-24.3252	-36.7955	-132.63	-24.4796	-61.7237	-121.155	-30.5843	-87.1024	-141.961	-43.818	-20.0077	-136.745	-49.8883	-41.2757	-130.738	-58.7769	-64.9131	-158.843	-14.8975	8.82772	-166.664	-9.76748	36.5961	-154.008	19.6049	22.0746	
42	0.35	-107.982	19.3854	36.6894	-88.2121	6.27227	10.9872	-101.936	-16.2252	-12.0817	-121.138	-30.6221	-9.49208	-108.347	25.058	-36.5559	-96.6921	22.1976	-63.239	-86.1667	17.4199	-87.6545	-130.535	8.5989	-49.2737	-123.448	4.17304	-74.3072	-108.472	-2.62553	-104.319	-146.929	-6.93753	-37.9557	-143.668	-12.1457	-65.1321	-134.46	-17.6789	-89.3268	-161.086	-23.4597	-23.3332	-159.177	-28.5932	-45.7075	-156.975	-35.5473	-67.7689	-161.594	8.35777	10.1375	-169.008	12.399	36.9756	-140.528	30.8899	24.8727	
43	0.358333	-96.0099	13.4248	44.9296	-84.8658	-2.7565	17.3293	-96.4999	-17.6228	-7.0391	-127.119	-24.3462	-10.9852	-94.7279	24.6098	-32.474	-78.9764	23.8333	-51.8445	-71.5359	18.3065	-75.8597	-119.744	21.3061	-40.3584	-107.721	18.9247	-70.0111	-101.285	9.43551	-96.9881	-137.987	13.6251	-37.899	-136.702	11.314	-59.4506	-134.499	2.80181	-87.9655	-157.547	3.16639	-24.4467	-161.621	-2.07722	-44.4109	-162.802	-7.09018	-65.1062	-147.606	27.8654	11.5535	-159.492	31.058	40.9027	-120.486	37.8432	33.0244	
